<svg width="439" height="338" xmlns="http://www.w3.org/2000/svg"><g fill="none" fill-rule="evenodd"><path d="M220 305.09l3.41-104.88c.5-15.77 14.45-41.21 34.63-41.21h70.93c19.5 0 58.5 11.72 74.64 51.29 16.14 39.56 23.2 59.64 27.56 74.05 4.37 14.4 5.05 35.18-8.07 42.89-13.11 7.7-203.1 3.76-203.1 3.76v-25.9" fill="#6ED7A1"></path><path d="M277.67 158.97s-8.61 14.06-2.45 30.78l10.62-6.9 10.05 8.15s26.36-12.25 31.11-32.03c-4.58-1.98-5.45-.31-5.45-.31l-43.88.31z" fill="#FFF"></path><path fill="#6ED7A1" d="M228.61 228L190 256.68 236.37 335 279 300.9z"></path><path d="M220 331h215v-16.44s-114.6-33.2-147.62-42.74C254.35 262.27 220 291.55 220 331zM220 331H5v-16.44s114.6-33.2 147.63-42.74C185.65 262.27 220 291.55 220 331z" fill="#FFDC8E"></path><path fill="#000" fill-rule="nonzero" d="M313 129h20v19h-20z"></path><path d="M439 334.5c0-1.93-1.48-3.5-3.3-3.5H3.3c-1.82 0-3.3 1.57-3.3 3.5s1.48 3.5 3.3 3.5h432.4c1.82 0 3.3-1.57 3.3-3.5z" fill="#FF8173"></path><path d="M277 152.25v15.49c0 7.22 6.15 16.26 13.13 16.26 7 0 30.87-25.53 30.87-25.53V143l-44 9.25z" fill="#FEC8C2"></path><path d="M277 152.47v3.14c0 5.18 7.71 8.36 10.87 8.39 11.96.11 33.13-21 33.13-21l-44 9.47z" fill="#FF8173"></path><path d="M325.46 68.77c17.48 10.05 20.7 37.13 7.19 60.44-13.5 23.32-38.65 34.08-56.12 24.02-17.47-10.05-20.68-37.13-7.18-60.44 13.5-23.3 38.64-34.08 56.11-24.02z" fill="#FEC8C2"></path><path d="M321 119c2.94 0 6-2.2 6-7" stroke="#FF8173" stroke-width="1.6" stroke-linecap="round" stroke-linejoin="round"></path><path d="M269 94.34h40.04v39.97s6.33-14.4 6.33-21.42c0-7.02 1.98-10.26 5.6-10.26 3.63 0 4.71 5.58 4.71 10.44 0 4.87-.44 21.3 0 34.7A871.9 871.9 0 01355 148s-.75-34.47-2.37-47.53C350.58 84.03 336.53 63 313.93 63c-22.61 0-40.28 20.35-44.93 31.34z" fill="#6E86FF"></path><path d="M267.35 104h5.23c.53 0 1.02.32 1.27.82.24.5.2 1.1-.12 1.56l-8.46 12.24a1.56 1.56 0 00-.12 1.56c.25.5.74.82 1.27.82h6.41M285 104.5h9" stroke="#FF8173" stroke-width="1.6" stroke-linecap="round" stroke-linejoin="round"></path><path d="M269 107c.55 0 1 .67 1 1.5 0 .82-.45 1.5-1 1.5s-1-.67-1-1.5.45-1.5 1-1.5zM288 107c.55 0 1 .67 1 1.5 0 .82-.45 1.5-1 1.5s-1-.67-1-1.5.45-1.5 1-1.5z" fill="#000" fill-rule="nonzero"></path><path d="M269.14 129.02c4.82 0 11.86-.48 11.86 3.56s-7.92 7.42-10.74 7.42c-2.82 0-6.26-5.08-6.26-7.94 0-2.87.31-3.04 5.14-3.04z" fill="#FF8173"></path><path d="M229 228.52c-4.37-6.38-17.6-26.46-29.25-39.99-11.65-13.53-22.44-13.02-28.6-14.73-6.18-1.71-7.89 5.48-2.06 8.05a13.9 13.9 0 018.05 10.45c-4.6-3.28-24.81-17.95-29.6-21.72-4.8-3.78-8.4-.17-3.78 4.46 4.62 4.62 19.7 21.57 19.7 21.57s-23.99-15.1-28.95-17.12c-4.97-2.03-8.4 2.05-2.75 5.82a3064.4 3064.4 0 0126.56 18.33s-25.36-10.96-30.16-11.99c-4.8-1.02-6 3.6-.65 6.5 5.33 2.92 24.67 12.86 27.24 13.7-8.06-1.36-21.25-5.47-25.7-6.33-4.45-.86-4.46 3.94-.18 6.17 4.28 2.22 25.02 12.42 33.24 16.83 8.22 4.41 23.73 21 28.57 28.48 8.9-6.6 29.84-20.73 38.32-28.48z" fill="#FEC8C2"></path><path d="M176.56 192s-3.37 17.32 6.44 29M161 218l11-18" stroke="#FF8173" stroke-width="1.6" stroke-linecap="round" stroke-linejoin="round"></path><path stroke="#000" stroke-width="1.6" stroke-linecap="round" stroke-linejoin="round" d="M229 228l31 44M342 208l35 90M241 198l16 71"></path><path d="M357.88 12.5a12.5 12.5 0 00-12.38 12.42V25c0-6.9-5.6-12.5-12.5-12.5 6.9 0 12.5-5.6 12.5-12.5v.08A12.5 12.5 0 00358 12.5h-.12zM404.93 67.52a7.5 7.5 0 00-7.43 7.43V75a7.5 7.5 0 00-7.5-7.5 7.5 7.5 0 007.5-7.5v.05a7.5 7.5 0 007.5 7.43l-.07.04zM414.96 14.51a7.5 7.5 0 00-7.43 7.44V22a7.52 7.52 0 00-7.53-7.49c4.14 0 7.5-3.36 7.5-7.51v.05a7.5 7.5 0 007.5 7.44l-.04.02z" fill="#FFDC8E"></path></g></svg>