<svg version="1.1" id="Layer_3" xmlns="http://www.w3.org/2000/svg" xmlns:xlink="http://www.w3.org/1999/xlink" x="0px" y="0px" width="543" height="347" viewBox="0 0 543.1 347" style="enable-background:new 0 0 543.1 347;" xml:space="preserve">
<style type="text/css">
	.st0{fill-rule:evenodd;clip-rule:evenodd;fill:#9CE8C2;}
	.st1{fill:#60D399;}
	.st2{fill-rule:evenodd;clip-rule:evenodd;fill:#ACE4FF;}
	.st3{fill-rule:evenodd;clip-rule:evenodd;fill:#5BB9FF;}
	.st4{fill-rule:evenodd;clip-rule:evenodd;}
	.st5{fill-rule:evenodd;clip-rule:evenodd;fill:#FF8173;}
	.st6{fill-rule:evenodd;clip-rule:evenodd;fill:#FFC7BF;}
	.st7{fill-rule:evenodd;clip-rule:evenodd;fill:#FFDC8E;}
	.st8{fill-rule:evenodd;clip-rule:evenodd;fill:#FFF3D6;}
	.st9{fill-rule:evenodd;clip-rule:evenodd;fill:#FFFFFF;}
	.st10{fill:#FF604B;}
	.st11{fill:#ACE4FF;}
	.st12{fill-rule:evenodd;clip-rule:evenodd;fill:#6D83F3;}
	.st13{fill-rule:evenodd;clip-rule:evenodd;fill:#A36A63;}
	.st14{fill-rule:evenodd;clip-rule:evenodd;fill:#BDC7FB;}
	.st15{fill:#6D83F3;}
	.st16{fill-rule:evenodd;clip-rule:evenodd;fill:#6E86FF;}
	.st17{fill-rule:evenodd;clip-rule:evenodd;fill:#FEDD8E;}
	.st18{fill-rule:evenodd;clip-rule:evenodd;fill:#6ED7A1;}
</style>
<g>
<g>
<g>
<path class="st0" d="M291.5,53c0-14,5.6-27.5,15.5-37.4C317,5.6,330.5,0,344.5,0h161.8v243H291.5V53z"></path>
</g>
<g>
<path class="st0" d="M291.5,53c0-14-5.6-27.5-15.5-37.4C266.1,5.6,252.6,0,238.6,0H76.8v243h214.8V53z"></path>
</g>
<g>
<path class="st1" d="M291.5,244.9c-1.1,0-1.9-0.9-1.9-1.9V57.7c0-1.1,0.9-1.9,1.9-1.9s1.9,0.9,1.9,1.9V243
				C293.5,244.1,292.6,244.9,291.5,244.9z"></path>
</g>
</g>
<g>
<g>
<polygon class="st2" points="183.9,341.7 278.7,341.7 402.7,217.7 402.7,341.7 470.8,341.7 470.8,54.8 			"></polygon>
</g>
<g>
<rect x="402.7" y="276.3" class="st3" width="68.1" height="22.8"></rect>
</g>
<g>
<polygon class="st3" points="321.3,299.1 344.1,276.3 249.3,276.3 226.4,299.1 			"></polygon>
</g>
</g>
<g>
<g>
<path class="st2" d="M140.7,158.4c0,0,96.2,135.6,123.2,173.7c1.3,1.9,1.5,4.4,0.5,6.5c-1.1,2.1-3.2,3.4-5.5,3.4H22.6
				c-2.3,0-4.5-1.3-5.5-3.4c-1.1-2.1-0.9-4.6,0.5-6.5C44.5,294,140.7,158.4,140.7,158.4z"></path>
</g>
<g>
<path class="st2" d="M171.7,20.9c0-1.7-0.7-3.3-1.9-4.5c-1.2-1.2-2.8-1.9-4.5-1.9c-11.9,0-37.4,0-49.3,0c-1.7,0-3.3,0.7-4.5,1.9
				c-1.2,1.2-1.9,2.8-1.9,4.5c0,1.7,0.7,3.3,1.9,4.5c1.2,1.2,2.8,1.9,4.5,1.9h49.3c1.7,0,3.3-0.7,4.5-1.9
				C171,24.2,171.7,22.5,171.7,20.9L171.7,20.9z"></path>
</g>
<g>
<rect x="119" y="20.9" class="st2" width="43.4" height="176.3"></rect>
</g>
<g>
<rect x="119" y="27.2" class="st3" width="43.4" height="6.6"></rect>
</g>
</g>
<g>
<path class="st4" d="M269.3,336.4c148.6,0,269.4-0.5,269.3,5.3c-0.1,6.2-120.7,5.3-269.3,5.3C120.7,346.9,0,347.6,0,341.6
			S120.7,336.4,269.3,336.4z"></path>
</g>
<g>
<g>
<path class="st5" d="M198.4,119c0,0-1.9-27.3,23.7-29.8c25.6-2.4,29.4,24.2,27.3,31.6C239.9,120.9,198.4,119,198.4,119z"></path>
</g>
<g>
<path class="st6" d="M243.8,117.9c3.8,0,13.2,6,14,17.7c0.8,11.7-1.2,27.7,0.2,38.4c1.4,10.7-1.7,35.6-1.7,35.6s0,12.7,0.3,15.4
				c0.3,2.7-1.8,2.7-2.3-0.2c-0.6-2.9-1.3-9-2.3-13.3c-1.1-4.3-2-6.7-0.6-10.5c1.4-3.7-5.3-12-5.5-25
				C245.6,163.1,240,117.9,243.8,117.9z"></path>
</g>
<g>
<polygon class="st2" points="216.5,117.4 203.4,118.3 204.9,139.8 210.9,181.8 246.5,181.8 243.6,117.9 233.6,117.4 			"></polygon>
</g>
<g>
<path class="st6" d="M183.6,61.7c0,0-4.1,36.4-5.5,45.6c-1.3,9.2,3.1,11,7.8,11h17.5c0,0,5.6,9.4,1.6,21.5
				c-8.3,0-20.4-2.5-25.1-3.4c-4.7-0.9-16.3-7.6-14.1-27.8c2.2-20.1,8.1-49.2,8.1-49.2s-1.1-14.3-2.5-19.9c-1.3-5.6,2.5-5.1,3.4-1.6
				c0.9,3.6,1.8,7.2,1.8,7.2s1.1-10.2,1.4-13.4c0.3-3.2,4.1-3.9,3.9-0.2c-0.2,3.7-0.5,12.4-0.5,12.4s3.1-9.2,4.3-12
				c1.2-2.8,4.8-2.4,3.7,0.6c-1.1,3-3.8,11.8-3.8,11.8s5.5-5.6,7.2-7.2c1.7-1.6,4.3-0.3,2.4,2c-1.9,2.3-3.9,6.1-6.3,9.3
				c-2.5,3.2,0.2,6.3,3.5,5.6c3.3-0.7,4.3-1.1,6.9-1.6c2.6-0.5,2.2,2.7-0.1,3.6C196.8,57.1,188.1,63.4,183.6,61.7z"></path>
</g>
<g>
<path class="st6" d="M219.8,114.8c0,0-0.5,2-3.3,2.6c2.1,3.5,8,12.2,8,12.2l9-12.2c0,0-2.8-1.6-3-3.2
				C227.2,114,219.8,114.8,219.8,114.8z"></path>
</g>
<g>
<path class="st4" d="M219.4,115.5c0,0,1.1,2.6,5.7,2.4c4.5-0.2,5.7-3.1,5.7-3.1s-0.3-1.6-0.7-2.4c-0.4-0.8-10,1.7-10,1.7
				L219.4,115.5z"></path>
</g>
<g>
<path class="st6" d="M224.6,91.3c6.8,0,12.3,5.5,12.3,12.3c0,6.8-5.5,12.3-12.3,12.3c-6.8,0-12.3-5.5-12.3-12.3
				C212.3,96.8,217.8,91.3,224.6,91.3z"></path>
</g>
<g>
<path class="st5" d="M211.5,100.1h27.2c0,0-6.5-9.9-13.7-9.9C212.8,90.2,211.5,100.1,211.5,100.1z"></path>
</g>
<g>
<path class="st7" d="M210.9,181.8c-5.9,4.1-16.4,24.8-17.4,45.2c-1,20.5-7.6,71.1-7.6,71.1h83.7c0,0-8.7-58.9-11.3-71.1
				c-2.6-12.2-5.9-41-12-45.2C237.7,181.8,219.2,181.7,210.9,181.8z"></path>
</g>
<g>
<polygon class="st6" points="201.6,298.1 198.4,331.9 204.7,334.9 219.3,298.1 			"></polygon>
</g>
<g>
<polygon class="st6" points="255.1,298.1 258.4,331.9 252.1,334.9 237.4,298.1 			"></polygon>
</g>
<g>
<path class="st5" d="M198.4,331.9c0,0-17.1,5.9-16.6,9.8h21l1.9-6.7L198.4,331.9z"></path>
</g>
<g>
<path class="st5" d="M258.4,331.9c0,0,17.1,5.9,16.6,9.8h-21l-1.9-6.7L258.4,331.9z"></path>
</g>
</g>
<g>
<g>
<path class="st5" d="M309.8,82.4c-8.1,1.5-25.4,7.4-33.2,9.2c-7.7,1.8-14.1,7.1-17.3,19.6c-3.3,12.4-7.5,31.4-8.3,40.3
				c-0.8,9-2.9,27.3,22,28.9c8.8,0.2,14.5,1.6,14.5,1.6s52-2.9,55-3.1c3.1-0.2,5.3-4.7,4.7-7.3c2.2,4.5,21.4,12.8,28.5-1.2
				c7.1-14.1,15.3-35.2,15.3-35.2l-21.4-15.5l-6.5,15.5c0,0-0.8-19.6-1-27.3c-0.2-7.7-4.9-16.7-17.1-20.2
				c-12.2-3.5-24.1-5.5-24.1-5.5S317.9,80.9,309.8,82.4z"></path>
</g>
<g>
<path class="st8" d="M315,54.8c7.9,0,14.3,6.4,14.3,14.3c0,7.9-6.4,14.3-14.3,14.3c-7.9,0-14.3-6.4-14.3-14.3
				C300.7,61.2,307.1,54.8,315,54.8z"></path>
</g>
<g>
<path class="st9" d="M287.4,181.7c0,0,1.6,36.3,3.6,55.6c2,19.3,5,86.9,5,86.9h19.3l2.2-93.2l23.9,90.7H363l-19.3-143.5
				L287.4,181.7z"></path>
</g>
<g>
<path class="st8" d="M369.1,124.6c0.6-3.5-1.3-18.4,2.4-19.8c3.7-1.4,3.5,1.5,3.5,4v4c0,0,7.7-11,10.9-15.2c3.2-4.1,8-2.8,5.5,2
				c-2.5,4.8-8.3,14.3-8.3,14.3s8.3-10.4,11.2-13.3c2.9-2.9,6.7-1.2,4.8,2.6c-2,3.8-8.7,12.9-8.7,12.9s9.1-7.4,12.1-9.7
				c3.1-2.3,5.1,1.2,2.8,3.7c-2.3,2.5-9.8,10-9.8,10s5.8-1.5,9.2-2.6c3.4-1.1,3.5,2.6,0.3,4.3c-3.2,1.7-12.6,15.7-18.4,15.6
				C380.8,137.2,367.7,132.2,369.1,124.6z"></path>
</g>
<g>
<path class="st8" d="M310.8,180.8v-20.7c0,0,6.1-7.6,8.1-10c1.9-2.4,3.9-0.6,3.1,1.7c-0.8,2.2-3.1,7.5-3.1,7.5s9.5,2.5,10.5,7.8
				c1,5.3,2.4,12.9-3.2,12.9S310.8,180.8,310.8,180.8z"></path>
</g>
<g>
<path class="st10" d="M281.4,156.8C281.3,156.8,281.3,156.8,281.4,156.8c-0.5,0-0.9-0.5-0.9-1l1.9-39.7c0-0.5,0.5-0.9,1-0.9
				c0.5,0,0.9,0.5,0.9,1l-1.9,39.7C282.2,156.5,281.8,156.8,281.4,156.8z"></path>
</g>
<g>
<path class="st10" d="M310.8,161C310.7,161,310.7,161,310.8,161l-39.7-4.2c-0.5-0.1-0.9-0.5-0.8-1c0.1-0.5,0.5-0.9,1-0.8
				l39.6,4.2c0.5,0.1,0.9,0.5,0.8,1C311.6,160.6,311.2,161,310.8,161z"></path>
</g>
<g>
<path class="st10" d="M347.1,172.6c-0.5,0-0.9-0.4-0.9-0.9l-3.4-53.3c0-0.5,0.3-0.9,0.8-1c0.5-0.1,0.9,0.3,1,0.8l3.4,53.3
				C348,172.1,347.6,172.6,347.1,172.6C347.1,172.6,347.1,172.6,347.1,172.6z"></path>
</g>
<g>
<path class="st10" d="M357.2,149.9c-0.1,0-0.2,0-0.4-0.1c-0.5-0.2-0.7-0.7-0.5-1.2l5.8-13.7c0.2-0.5,0.7-0.7,1.2-0.5
				c0.5,0.2,0.7,0.7,0.5,1.2l-5.8,13.7C357.9,149.7,357.5,149.9,357.2,149.9z"></path>
</g>
<g>
<path class="st11" d="M316.7,220.1c-0.2,0-0.4-0.1-0.6-0.2l-9.7-7.9c-0.4-0.3-0.4-0.9-0.1-1.3c0.3-0.4,0.9-0.4,1.3-0.1l9.1,7.4
				l7.9-8.7c0.3-0.4,0.9-0.4,1.3-0.1c0.4,0.3,0.4,0.9,0.1,1.3l-8.5,9.3C317.2,220,316.9,220.1,316.7,220.1z"></path>
</g>
<g>
<path class="st12" d="M295.9,324.2c0.1,3.8-23,12.3-21.9,17.4h42l-0.9-17.4C315.2,324.2,302.6,323.7,295.9,324.2z"></path>
</g>
<g>
<path class="st12" d="M341.3,321.8c1.6,5.8,6.5,18.1,9,19.9h26c0,0-0.1-2.2-6.3-7.4c-6.1-5.1-7.1-12.5-7.1-12.5
				S348.3,320.8,341.3,321.8z"></path>
</g>
</g>
<g>
<g>
<path class="st4" d="M111.4,142.8c0,0-12.9-8.7-10.3-20c2.5-11.3,12.6-12.7,13.1-18c0.6-5.3-4.2-19.6,7.5-24.9
				c11.7-5.3,30.5,2.3,30.1,17.8c0,16.9-9.5,25.1-9.5,25.1L111.4,142.8z"></path>
</g>
<g>
<path class="st13" d="M142.4,94.2c7.9,0,14.3,6.4,14.3,14.3c0,7.9-6.4,14.3-14.3,14.3c-7.9,0-14.3-6.4-14.3-14.3
				C128,100.6,134.5,94.2,142.4,94.2z"></path>
</g>
<g>
<path class="st14" d="M148.8,121.3c0,0,18.5,11,23.7,14.6c5.2,3.6,7.3,6.9,9.4,16.3c2.1,9.4,5.5,31.9,6.8,40.9
				c1.3,8.9-2.5,20.3-11.2,20.3h-11V229H93.5c0,0,11.2-65.7,12.7-78c1.6-12.3,6.9-17.4,10.7-20.1c3.8-2.7,19.8-9.2,19.8-9.2
				L148.8,121.3z"></path>
</g>
<g>
<path class="st15" d="M112.9,230c0,0-0.1,0-0.1,0c-0.5-0.1-0.8-0.5-0.8-1l10.7-71.5c0.1-0.5,0.5-0.8,1-0.8c0.5,0.1,0.8,0.5,0.8,1
				l-10.7,71.5C113.7,229.6,113.4,230,112.9,230z"></path>
</g>
<g>
<path class="st15" d="M165.9,189.7c-0.5,0-0.9-0.4-0.9-0.9v-31.3c0-0.5,0.4-0.9,0.9-0.9c0.5,0,0.9,0.4,0.9,0.9v31.3
				C166.8,189.3,166.4,189.7,165.9,189.7z"></path>
</g>
<g>
<path class="st13" d="M153.8,207.8c-6.2,1.8-13.6,3.6-15.3-0.2c-1.8-3.8-1.1-7.3-1.1-7.3s-3.4-5.9,0.9-5.9h15.5
				C153.8,194.4,154.4,201.9,153.8,207.8z"></path>
</g>
<g>
<path class="st9" d="M166.7,229l-6.3,102.6h-11.7c0,0-8.7-31.9-9.4-72.1c0.4,40.2-11.6,67.6-14.7,71.8h-8.4L114,229H166.7z"></path>
</g>
<g>
<path class="st5" d="M116.3,331.3c-1.8,2.6-9.5,6.9-7.8,10.3h16.2c0,0,0.6-7.3,0-10.3S118.1,328.7,116.3,331.3z"></path>
</g>
<g>
<path class="st5" d="M148.7,331.6c0,0-2.9,7.8-2,10h26.5c0,0-1.6-4.8-12.8-10H148.7z"></path>
</g>
<g>
<path d="M138.9,253.9c-0.2,0-0.4-0.1-0.6-0.2l-6.9-6.3c-0.4-0.3-0.4-0.9-0.1-1.3c0.3-0.4,0.9-0.4,1.3-0.1l6.3,5.7l7-5.8
				c0.4-0.3,1-0.3,1.3,0.1c0.3,0.4,0.3,1-0.1,1.3l-7.6,6.3C139.3,253.8,139.1,253.9,138.9,253.9z"></path>
</g>
<g>
<path d="M139.3,262.5c-0.5,0-0.9-0.4-0.9-0.9V253c0-0.5,0.4-0.9,0.9-0.9s0.9,0.4,0.9,0.9v8.6
				C140.2,262.1,139.8,262.5,139.3,262.5z"></path>
</g>
<g>
<path class="st15" d="M166.7,214.3h-12.6c-0.5,0-0.9-0.4-0.9-0.9v-24.6c0-0.5,0.4-0.9,0.9-0.9h22.4c0.5,0,0.9,0.4,0.9,0.9
				s-0.4,0.9-0.9,0.9H155v22.8h11.7c0.5,0,0.9,0.4,0.9,0.9S167.2,214.3,166.7,214.3z"></path>
</g>
</g>
<g>
<g>
<polygon class="st5" points="89.7,177.2 90.9,172.5 103.9,172.5 105.1,177.2 			"></polygon>
</g>
<g>
<path class="st6" d="M97.1,148.2c7.9,0,14.3,6.4,14.3,14.3c0,7.9-6.4,14.3-14.3,14.3c-7.9,0-14.3-6.4-14.3-14.3
				C82.8,154.7,89.2,148.2,97.1,148.2z"></path>
</g>
<g>
<path class="st0" d="M97.1,176.9c-15.2,0-51.7,5.5-59.3,32.8c-7.6,27.3-8,53.3-8,53.3h32.7v10.9h70.5V263H165
				c0,0-4.1-33.6-13-60.2C147.1,188.1,125.4,176.9,97.1,176.9z"></path>
</g>
<g>
<path class="st1" d="M62.6,263.9c-0.5,0-0.9-0.4-0.9-0.9v-48.4c0-0.5,0.4-0.9,0.9-0.9c0.5,0,0.9,0.4,0.9,0.9V263
				C63.5,263.5,63.1,263.9,62.6,263.9z"></path>
</g>
<g>
<path class="st1" d="M133.8,263.9c-0.5,0-0.9-0.4-0.9-0.9v-48.4c0-0.5,0.4-0.9,0.9-0.9s0.9,0.4,0.9,0.9V263
				C134.7,263.5,134.3,263.9,133.8,263.9z"></path>
</g>
<g>
<polygon class="st12" points="62.6,273.9 62.6,312.3 94,312.3 101.3,300 108,312.3 133.1,312.3 133.1,273.9 			"></polygon>
</g>
<g>
<path class="st16" d="M77.5,329.6h13.6l1.2,12h-26c0,0,0.9-4.7,4.7-6.2C74.9,333.9,77.5,329.6,77.5,329.6z"></path>
</g>
<g>
<path class="st16" d="M122.6,329.6H109l-1.2,12h26c0,0-0.9-4.7-4.7-6.2C125.2,333.9,122.6,329.6,122.6,329.6z"></path>
</g>
<g>
<polygon class="st6" points="89.8,329.6 88.5,312.3 73.5,312.3 77.5,329.6 			"></polygon>
</g>
<g>
<polygon class="st6" points="110.3,329.6 111.6,312.3 126.7,312.3 122.6,329.6 			"></polygon>
</g>
<g>
<path class="st6" d="M37.1,263c0,0-5.8,6.1-2.1,10.9c2.8,3.5,11,2.7,13.3,0c-1,2.4,2.3,5.2,4.8,1.2c2.5-4,4-12.1,4-12.1H37.1z"></path>
</g>
<g>
<path class="st6" d="M159.6,263c0,0,5.8,6.1,2.1,10.9c-2.8,3.5-11,2.7-13.3,0c1,2.4-2.3,5.2-4.8,1.2c-2.5-4-4-12.1-4-12.1H159.6z
				"></path>
</g>
<g>
<path class="st9" d="M87.8,177.4l9.6,9.7l9.1-9.9C100.5,176.6,94.2,176.6,87.8,177.4z"></path>
</g>
</g>
<g>
<g>
<path class="st6" d="M423.6,123c7.9,0,14.3,6.4,14.3,14.3c0,7.9-6.4,14.3-14.3,14.3c-7.9,0-14.3-6.4-14.3-14.3
				C409.3,129.4,415.7,123,423.6,123z"></path>
</g>
<g>
<path class="st4" d="M410.2,108.4c5.7,0,10.2,4.6,10.2,10.2c0,5.7-4.6,10.2-10.2,10.2c-5.7,0-10.3-4.6-10.3-10.2
				C399.9,113,404.5,108.4,410.2,108.4z"></path>
</g>
<g>
<path class="st4" d="M435.6,129.4l-18.5,6.6l1.3,10.2c0,0-4.3-10.1-5.7-8.9c-1.4,1.1,0.5,9.9,0.5,9.9s-11.6-13.1,2.7-23.3
				C430.4,113.7,435.6,129.4,435.6,129.4z"></path>
</g>
<g>
<path class="st6" d="M474.3,140.3l11.8,25c0,0,28.8-16.5,38.2-21.6c9.4-5.1,10-14.8,5.3-14.8c5.4-1.7,8.5-3.9,12-5.9
				c3.4-2.1,0.9-4.3-3.4-2.5c-4.4,1.7-20.3,9.7-25.2,11.3C508,133.4,474.3,140.3,474.3,140.3z"></path>
</g>
<g>
<path class="st6" d="M377.3,206.6c0,0-3.6,11-6.7,18.7c-3.1,7.6,0.7,14.8,3.1,20.1c2.3,5.3,7.2,19.2,10.9,23.2
				c3.6,4,9.1,8.9,13.8,3.3c4.7-5.6,6.4-11.8,3.7-13.7c-2.7-1.9-6.7-1.9-6.7-1.9s-4.7-13.8-6-17c-1.3-3.2-2.7-11.6-0.5-15.4
				c2.2-3.8,5.8-11,5.8-11L377.3,206.6"></path>
</g>
<g>
<path class="st17" d="M427.8,151.6c-10,3.7-21.2,9.8-26.1,11.6c-4.9,1.8-12.9,6.9-15.4,14.7c-2.5,7.8-9.1,28.6-9.1,28.6l17.4,6.3
				l5.3-6.3l6.9,31.6h67.5c0,0-2-28.8-16.4-57.1c12.5-7.4,28.1-15.8,28.1-15.8l-11.8-25C474.3,140.3,437.8,147.9,427.8,151.6z"></path>
</g>
<g>
<polygon class="st18" points="406.8,238.2 410.2,274.3 438.7,274.3 444.8,260.3 450.3,274.3 479.5,274.3 474.3,238.2 			"></polygon>
</g>
<g>
<path class="st6" d="M415.2,274.3c0,0,1.5,45.3,3.8,53.9H434l2.5-53.9H415.2z"></path>
</g>
<g>
<path class="st6" d="M479.5,274.3c1.3,8.8,4.5,35.3,5.4,51h-18.4c0,0-1.7-35.6-9.7-51C465.9,274.3,474.2,273.7,479.5,274.3z"></path>
</g>
<g>
<path class="st5" d="M418.9,328.2c-2.4,4.6-7.5,11.3-7.4,13.5h26.2c0-3.6-2-10-3.8-13.5C432.3,324.7,420.5,325.1,418.9,328.2z"></path>
</g>
<g>
<path class="st5" d="M466.5,325.3c0,0-4.2,13.3-1.5,16.4h38.4c0,0-2.3-4.2-7-5.8c-4.6-1.6-11.2-7.5-11.6-10.6
				C484.4,322.2,466.5,325.3,466.5,325.3z"></path>
</g>
</g>
<g>
<g>
<path class="st13" d="M332.9,173.6c7.9,0,14.3,6.4,14.3,14.3c0,7.9-6.4,14.3-14.3,14.3c-7.9,0-14.3-6.4-14.3-14.3
				C318.6,180.1,325,173.6,332.9,173.6z"></path>
</g>
<g>
<path class="st14" d="M330.6,202.1h-79.2l2.9,10.6c0,0,37.7,20.5,56.8,20.1v26h44.4l-0.3-24.9c0,0,28.9-4.3,49.4-22.2
				c1.7-5.5,2.7-9.4,2.7-9.4L330.6,202.1z"></path>
</g>
<g>
<path class="st5" d="M311,258.7c1.1,32.6,6.2,52,11,72.6h17.4c8.4-21.2,15.8-43.2,16-72.6H311z"></path>
</g>
<g>
<path class="st10" d="M331.1,330.9c-0.5,0-0.9-0.4-0.9-0.9v-57.2c0-0.5,0.4-0.9,0.9-0.9c0.5,0,0.9,0.4,0.9,0.9V330
				C332.1,330.5,331.6,330.9,331.1,330.9z"></path>
</g>
<g>
<path class="st3" d="M322,331.3c0,0-14.9,6.1-14.9,10.3h24.1v-10.3H322z"></path>
</g>
<g>
<path class="st3" d="M339.1,331.3c0,0,14.9,6.1,14.9,10.3h-24.1v-10.3H339.1z"></path>
</g>
<g>
<path class="st15" d="M311,233.6c-0.5,0-0.9-0.4-0.9-0.9v-8.6c0-0.5,0.4-0.9,0.9-0.9c0.5,0,0.9,0.4,0.9,0.9v8.6
				C311.9,233.2,311.5,233.6,311,233.6z"></path>
</g>
<g>
<path class="st15" d="M356.5,233.6c-0.5,0-0.9-0.4-0.9-0.9v-8.6c0-0.5,0.4-0.9,0.9-0.9c0.5,0,0.9,0.4,0.9,0.9v8.6
				C357.4,233.2,357,233.6,356.5,233.6z"></path>
</g>
<g>
<path class="st13" d="M251.3,202.1c-1.1-1.7-3.3-5-4.5-6.6c-1.2-1.6-3.7,0-2.3,2c1.5,2,3.2,6.7,0.2,9.4c-3,2.7-7.4,7.2-5.9,10.4
				c1.5,3.2,4.1,4.7,7.5,3.8c3.5-0.9,7.8-8.3,7.8-8.3S252.4,203.8,251.3,202.1z"></path>
</g>
<g>
<path class="st13" d="M407.2,202.1c1.1-1.7,3.3-5,4.5-6.6c1.2-1.6,3.7,0,2.3,2c-1.5,2-3.2,6.7-0.2,9.4c3,2.7,7.4,7.2,5.9,10.4
				s-4.1,4.7-7.5,3.8c-3.5-0.9-7.8-8.3-7.8-8.3S406.1,203.8,407.2,202.1z"></path>
</g>
</g>
</g>
</svg>